<?xml version="1.0" encoding="UTF-8"?>
<!DOCTYPE svg PUBLIC "-//W3C//DTD SVG 1.1//EN" "http://www.w3.org/Graphics/SVG/1.1/DTD/svg11.dtd">
<svg xmlns="http://www.w3.org/2000/svg" xmlns:xlink="http://www.w3.org/1999/xlink" version="1.1" width="934px" height="512px" viewBox="-0.5 -0.5 934 512" style="background-color: rgb(255, 255, 255);"><defs/><g><ellipse cx="510" cy="175" rx="110" ry="50" fill="#000000" stroke="#000000" stroke-width="2" transform="translate(2,3)" opacity="0.25"/><ellipse cx="510" cy="175" rx="110" ry="50" fill="#f5f5f5" stroke="#666666" stroke-width="2" pointer-events="none"/><g fill="#333333" font-family="Comic Sans MS" text-anchor="middle" font-size="30px"><text x="509.08" y="169.08">Activités</text><text x="509.08" y="205.08">didactiques</text></g><path d="M 107.75 100 L 107.75 100.15 L 118.05 99.82 L 128.35 100.56 L 138.65 100.67 L 148.95 100.5 L 159.25 99.72 L 169.55 100.15 L 179.85 99.39 L 190.15 99.27 L 200.45 100.22 L 210.75 100.11 L 221.05 99.3 L 231.35 99.25 L 241.65 100.25 L 251.95 100.67 L 262.25 100 Q 275 100 275 112.75 L 275.46 112.75 L 274.68 122.67 L 274.62 132.58 L 274.91 142.5 L 275.03 152.42 L 274.41 162.33 L 275 172.25 Q 275 185 262.25 185 L 262.25 185.1 L 251.95 184.96 L 241.65 184.29 L 231.35 185.43 L 221.05 185.24 L 210.75 184.69 L 200.45 184.92 L 190.15 185.51 L 179.85 185.35 L 169.55 184.26 L 159.25 184.49 L 148.95 185.15 L 138.65 185.39 L 128.35 184.93 L 118.05 184.8 L 107.75 185 Q 95 185 95 172.25 L 95.4 172.25 L 95.57 162.33 L 95.02 152.42 L 95.2 142.5 L 95.65 132.58 L 95.39 122.67 L 95 112.75 Q 95 100 107.75 100 L 107.75 100 Z Z" fill="#000000" stroke="#000000" stroke-linejoin="round" stroke-linecap="round" stroke-miterlimit="10" transform="translate(2,3)" opacity="0.25"/><path d="M 107.75 100 L 107.75 100.15 L 118.05 99.82 L 128.35 100.56 L 138.65 100.67 L 148.95 100.5 L 159.25 99.72 L 169.55 100.15 L 179.85 99.39 L 190.15 99.27 L 200.45 100.22 L 210.75 100.11 L 221.05 99.3 L 231.35 99.25 L 241.65 100.25 L 251.95 100.67 L 262.25 100 Q 275 100 275 112.75 L 275.46 112.75 L 274.68 122.67 L 274.62 132.58 L 274.91 142.5 L 275.03 152.42 L 274.41 162.33 L 275 172.25 Q 275 185 262.25 185 L 262.25 185.1 L 251.95 184.96 L 241.65 184.29 L 231.35 185.43 L 221.05 185.24 L 210.75 184.69 L 200.45 184.92 L 190.15 185.51 L 179.85 185.35 L 169.55 184.26 L 159.25 184.49 L 148.95 185.15 L 138.65 185.39 L 128.35 184.93 L 118.05 184.8 L 107.75 185 Q 95 185 95 172.25 L 95.4 172.25 L 95.57 162.33 L 95.02 152.42 L 95.2 142.5 L 95.65 132.58 L 95.39 122.67 L 95 112.75 Q 95 100 107.75 100 L 107.75 100 Z Z" fill="#ccffff" stroke="#0e8088" stroke-linejoin="round" stroke-linecap="round" stroke-miterlimit="10" pointer-events="none"/><g fill="#000000" font-family="Comic Sans MS" text-anchor="middle" font-size="24px"><text x="184.5" y="137.5">Programmation</text><text x="184.5" y="166.5">Dynamique</text></g><path d="M 400 175 Q 337.17 175 337.17 158.75 Q 337.17 142.5 275 142.5" fill="none" stroke="#000000" stroke-linejoin="round" stroke-linecap="round" stroke-miterlimit="10" pointer-events="none"/><path d="M 622 0 L 622 -0.11 L 631.71 -0.08 L 641.43 -0.72 L 651.14 -0.73 L 660.86 0.67 L 670.57 0.27 L 680.29 -0.62 L 690 0.24 L 699.71 0.2 L 709.43 0.74 L 719.14 -0.4 L 728.86 -0.51 L 738.57 -0.32 L 748.29 0.44 L 758 0 Q 770 0 770 12 L 770.68 12 L 770.59 21.33 L 770.59 30.67 L 769.64 40 L 770.46 49.33 L 769.53 58.67 L 770 68 Q 770 80 758 80 L 758 80.32 L 748.29 79.61 L 738.57 80.49 L 728.86 80.16 L 719.14 79.68 L 709.43 79.45 L 699.71 79.53 L 690 79.86 L 680.29 79.51 L 670.57 79.85 L 660.86 79.41 L 651.14 79.86 L 641.43 79.88 L 631.71 79.56 L 622 80 Q 610 80 610 68 L 609.66 68 L 610.32 58.67 L 610.12 49.33 L 610.09 40 L 610.44 30.67 L 609.84 21.33 L 610 12 Q 610 0 622 0 L 622 0 Z Z" fill="#000000" stroke="#000000" stroke-linejoin="round" stroke-linecap="round" stroke-miterlimit="10" transform="translate(2,3)" opacity="0.25"/><path d="M 622 0 L 622 -0.11 L 631.71 -0.08 L 641.43 -0.72 L 651.14 -0.73 L 660.86 0.67 L 670.57 0.27 L 680.29 -0.62 L 690 0.24 L 699.71 0.2 L 709.43 0.74 L 719.14 -0.4 L 728.86 -0.51 L 738.57 -0.32 L 748.29 0.44 L 758 0 Q 770 0 770 12 L 770.68 12 L 770.59 21.33 L 770.59 30.67 L 769.64 40 L 770.46 49.33 L 769.53 58.67 L 770 68 Q 770 80 758 80 L 758 80.32 L 748.29 79.61 L 738.57 80.49 L 728.86 80.16 L 719.14 79.68 L 709.43 79.45 L 699.71 79.53 L 690 79.86 L 680.29 79.51 L 670.57 79.85 L 660.86 79.41 L 651.14 79.86 L 641.43 79.88 L 631.71 79.56 L 622 80 Q 610 80 610 68 L 609.66 68 L 610.32 58.67 L 610.12 49.33 L 610.09 40 L 610.44 30.67 L 609.84 21.33 L 610 12 Q 610 0 622 0 L 622 0 Z Z" fill="#dae8fc" stroke="#6c8ebf" stroke-linejoin="round" stroke-linecap="round" stroke-miterlimit="10" pointer-events="none"/><g fill="#000000" font-family="Comic Sans MS" text-anchor="middle" font-size="24px"><text x="689.5" y="35">Analyser</text><text x="689.5" y="64"> la récursivité</text></g><path d="M 510 125 Q 509.67 102.5 599.67 102.5 Q 689.67 102.5 689.67 80" fill="none" stroke="#000000" stroke-linejoin="round" stroke-linecap="round" stroke-miterlimit="10" pointer-events="none"/><path d="M 272 272.5 L 272 272.69 L 281.71 272.3 L 291.43 272.25 L 301.14 272.18 L 310.86 272.65 L 320.57 273.07 L 330.29 272.93 L 340 272.5 L 349.71 272.22 L 359.43 272.29 L 369.14 272.71 L 378.86 272.19 L 388.57 273.24 L 398.29 271.9 L 408 272.5 Q 420 272.5 420 284.5 L 419.41 284.5 L 419.92 293.83 L 419.58 303.17 L 420.6 312.5 L 420.15 321.83 L 420.08 331.17 L 420 340.5 Q 420 352.5 408 352.5 L 408 352.85 L 398.29 352.66 L 388.57 352.22 L 378.86 352.46 L 369.14 352.95 L 359.43 352.96 L 349.71 352.26 L 340 352.72 L 330.29 352.25 L 320.57 352.63 L 310.86 352.47 L 301.14 352.25 L 291.43 351.87 L 281.71 352.17 L 272 352.5 Q 260 352.5 260 340.5 L 260.49 340.5 L 260.64 331.17 L 259.43 321.83 L 260.51 312.5 L 259.89 303.17 L 259.46 293.83 L 260 284.5 Q 260 272.5 272 272.5 L 272 272.5 Z Z" fill="#000000" stroke="#000000" stroke-linejoin="round" stroke-linecap="round" stroke-miterlimit="10" transform="translate(2,3)" opacity="0.25"/><path d="M 272 272.5 L 272 272.69 L 281.71 272.3 L 291.43 272.25 L 301.14 272.18 L 310.86 272.65 L 320.57 273.07 L 330.29 272.93 L 340 272.5 L 349.71 272.22 L 359.43 272.29 L 369.14 272.71 L 378.86 272.19 L 388.57 273.24 L 398.29 271.9 L 408 272.5 Q 420 272.5 420 284.5 L 419.41 284.5 L 419.92 293.83 L 419.58 303.17 L 420.6 312.5 L 420.15 321.83 L 420.08 331.17 L 420 340.5 Q 420 352.5 408 352.5 L 408 352.85 L 398.29 352.66 L 388.57 352.22 L 378.86 352.46 L 369.14 352.95 L 359.43 352.96 L 349.71 352.26 L 340 352.72 L 330.29 352.25 L 320.57 352.63 L 310.86 352.47 L 301.14 352.25 L 291.43 351.87 L 281.71 352.17 L 272 352.5 Q 260 352.5 260 340.5 L 260.49 340.5 L 260.64 331.17 L 259.43 321.83 L 260.51 312.5 L 259.89 303.17 L 259.46 293.83 L 260 284.5 Q 260 272.5 272 272.5 L 272 272.5 Z Z" fill="#e1d5e7" stroke="#9673a6" stroke-linejoin="round" stroke-linecap="round" stroke-miterlimit="10" pointer-events="none"/><g fill="#000000" font-family="Comic Sans MS" text-anchor="middle" font-size="24px"><text x="339.5" y="307.5">Dessiner un</text><text x="339.5" y="336.5">plan du débit</text></g><path d="M 510 225 Q 509.67 249.17 424.67 249.17 Q 339.67 249.17 339.67 272.5" fill="none" stroke="#000000" stroke-linejoin="round" stroke-linecap="round" stroke-miterlimit="10" pointer-events="none"/><path d="M 782 110 L 782 109.85 L 791.71 110.28 L 801.43 110.14 L 811.14 109.82 L 820.86 109.43 L 830.57 110.34 L 840.29 110.64 L 850 110.74 L 859.71 109.84 L 869.43 110.45 L 879.14 109.56 L 888.86 110.56 L 898.57 110.09 L 908.29 109.7 L 918 110 Q 930 110 930 122 L 930.44 122 L 930.01 131.33 L 930.04 140.67 L 929.72 150 L 930.7 159.33 L 929.95 168.67 L 930 178 Q 930 190 918 190 L 918 190.28 L 908.29 190.46 L 898.57 189.79 L 888.86 189.87 L 879.14 189.74 L 869.43 190.69 L 859.71 190.56 L 850 190.51 L 840.29 189.72 L 830.57 190.27 L 820.86 190.27 L 811.14 190.24 L 801.43 190.53 L 791.71 189.79 L 782 190 Q 770 190 770 178 L 770.47 178 L 770.01 168.67 L 770.18 159.33 L 769.41 150 L 769.8 140.67 L 770.35 131.33 L 770 122 Q 770 110 782 110 L 782 110 Z Z" fill="#000000" stroke="#000000" stroke-linejoin="round" stroke-linecap="round" stroke-miterlimit="10" transform="translate(2,3)" opacity="0.25"/><path d="M 782 110 L 782 109.85 L 791.71 110.28 L 801.43 110.14 L 811.14 109.82 L 820.86 109.43 L 830.57 110.34 L 840.29 110.64 L 850 110.74 L 859.71 109.84 L 869.43 110.45 L 879.14 109.56 L 888.86 110.56 L 898.57 110.09 L 908.29 109.7 L 918 110 Q 930 110 930 122 L 930.44 122 L 930.01 131.33 L 930.04 140.67 L 929.72 150 L 930.7 159.33 L 929.95 168.67 L 930 178 Q 930 190 918 190 L 918 190.28 L 908.29 190.46 L 898.57 189.79 L 888.86 189.87 L 879.14 189.74 L 869.43 190.69 L 859.71 190.56 L 850 190.51 L 840.29 189.72 L 830.57 190.27 L 820.86 190.27 L 811.14 190.24 L 801.43 190.53 L 791.71 189.79 L 782 190 Q 770 190 770 178 L 770.47 178 L 770.01 168.67 L 770.18 159.33 L 769.41 150 L 769.8 140.67 L 770.35 131.33 L 770 122 Q 770 110 782 110 L 782 110 Z Z" fill="#d5e8d4" stroke="#82b366" stroke-linejoin="round" stroke-linecap="round" stroke-miterlimit="10" pointer-events="none"/><g fill="#000000" font-family="Comic Sans MS" text-anchor="middle" font-size="24px"><text x="849.5" y="145">Spécifier</text><text x="849.5" y="174">Documenter</text></g><path d="M 620 175 Q 694.67 175 694.67 162.5 Q 694.67 150 770 150" fill="none" stroke="#000000" stroke-linejoin="round" stroke-linecap="round" stroke-miterlimit="10" pointer-events="none"/><path d="M 262 0 L 262 0.29 L 271.71 -0.12 L 281.43 0.64 L 291.14 0.05 L 300.86 -0.48 L 310.57 0.5 L 320.29 0.09 L 330 0.51 L 339.71 0.01 L 349.43 0.18 L 359.14 -0.1 L 368.86 0.24 L 378.57 0.75 L 388.29 0.37 L 398 0 Q 410 0 410 12 L 409.36 12 L 409.76 21.33 L 409.92 30.67 L 409.8 40 L 410.45 49.33 L 410.09 58.67 L 410 68 Q 410 80 398 80 L 398 79.48 L 388.29 80.19 L 378.57 79.66 L 368.86 79.3 L 359.14 79.44 L 349.43 79.6 L 339.71 79.82 L 330 80.34 L 320.29 79.6 L 310.57 79.89 L 300.86 80.39 L 291.14 79.86 L 281.43 79.5 L 271.71 79.32 L 262 80 Q 250 80 250 68 L 250.54 68 L 250.2 58.67 L 250.4 49.33 L 249.43 40 L 250.71 30.67 L 249.42 21.33 L 250 12 Q 250 0 262 0 L 262 0 Z Z" fill="#000000" stroke="#000000" stroke-linejoin="round" stroke-linecap="round" stroke-miterlimit="10" transform="translate(2,3)" opacity="0.25"/><path d="M 262 0 L 262 0.29 L 271.71 -0.12 L 281.43 0.64 L 291.14 0.05 L 300.86 -0.48 L 310.57 0.5 L 320.29 0.09 L 330 0.51 L 339.71 0.01 L 349.43 0.18 L 359.14 -0.1 L 368.86 0.24 L 378.57 0.75 L 388.29 0.37 L 398 0 Q 410 0 410 12 L 409.36 12 L 409.76 21.33 L 409.92 30.67 L 409.8 40 L 410.45 49.33 L 410.09 58.67 L 410 68 Q 410 80 398 80 L 398 79.48 L 388.29 80.19 L 378.57 79.66 L 368.86 79.3 L 359.14 79.44 L 349.43 79.6 L 339.71 79.82 L 330 80.34 L 320.29 79.6 L 310.57 79.89 L 300.86 80.39 L 291.14 79.86 L 281.43 79.5 L 271.71 79.32 L 262 80 Q 250 80 250 68 L 250.54 68 L 250.2 58.67 L 250.4 49.33 L 249.43 40 L 250.71 30.67 L 249.42 21.33 L 250 12 Q 250 0 262 0 L 262 0 Z Z" fill="#f8cecc" stroke="#b85450" stroke-linejoin="round" stroke-linecap="round" stroke-miterlimit="10" pointer-events="none"/><g fill="#000000" font-family="Comic Sans MS" text-anchor="middle" font-size="24px"><text x="329.5" y="35">Analyse</text><text x="329.5" y="64">Critique</text></g><path d="M 510 125 Q 509.67 102.5 419.67 102.5 Q 329.67 102.5 329.67 80" fill="none" stroke="#000000" stroke-linejoin="round" stroke-linecap="round" stroke-miterlimit="10" pointer-events="none"/><path d="M 772 240 L 772 239.93 L 781.71 240.72 L 791.43 239.55 L 801.14 239.25 L 810.86 239.49 L 820.57 239.86 L 830.29 239.38 L 840 239.27 L 849.71 240.44 L 859.43 240.72 L 869.14 239.39 L 878.86 240.48 L 888.57 240.66 L 898.29 240.05 L 908 240 Q 920 240 920 252 L 919.47 252 L 919.32 261.33 L 919.26 270.67 L 919.48 280 L 920.17 289.33 L 919.44 298.67 L 920 308 Q 920 320 908 320 L 908 320.53 L 898.29 319.64 L 888.57 319.39 L 878.86 319.48 L 869.14 319.83 L 859.43 319.79 L 849.71 320.46 L 840 320.7 L 830.29 319.62 L 820.57 319.29 L 810.86 319.94 L 801.14 319.47 L 791.43 319.8 L 781.71 319.73 L 772 320 Q 760 320 760 308 L 759.41 308 L 760.23 298.67 L 760.18 289.33 L 760.24 280 L 760.51 270.67 L 759.91 261.33 L 760 252 Q 760 240 772 240 L 772 240 Z Z" fill="#000000" stroke="#000000" stroke-linejoin="round" stroke-linecap="round" stroke-miterlimit="10" transform="translate(2,3)" opacity="0.25"/><path d="M 772 240 L 772 239.93 L 781.71 240.72 L 791.43 239.55 L 801.14 239.25 L 810.86 239.49 L 820.57 239.86 L 830.29 239.38 L 840 239.27 L 849.71 240.44 L 859.43 240.72 L 869.14 239.39 L 878.86 240.48 L 888.57 240.66 L 898.29 240.05 L 908 240 Q 920 240 920 252 L 919.47 252 L 919.32 261.33 L 919.26 270.67 L 919.48 280 L 920.17 289.33 L 919.44 298.67 L 920 308 Q 920 320 908 320 L 908 320.53 L 898.29 319.64 L 888.57 319.39 L 878.86 319.48 L 869.14 319.83 L 859.43 319.79 L 849.71 320.46 L 840 320.7 L 830.29 319.62 L 820.57 319.29 L 810.86 319.94 L 801.14 319.47 L 791.43 319.8 L 781.71 319.73 L 772 320 Q 760 320 760 308 L 759.41 308 L 760.23 298.67 L 760.18 289.33 L 760.24 280 L 760.51 270.67 L 759.91 261.33 L 760 252 Q 760 240 772 240 L 772 240 Z Z" fill="#ffe6cc" stroke="#d79b00" stroke-linejoin="round" stroke-linecap="round" stroke-miterlimit="10" pointer-events="none"/><g fill="#000000" font-family="Comic Sans MS" text-anchor="middle" font-size="24px"><text x="839.5" y="275">Faire des</text><text x="839.5" y="304">jeux de test</text></g><path d="M 510 225 Q 509.67 230 659.67 230 Q 809.67 230 809.67 240" fill="none" stroke="#000000" stroke-linejoin="round" stroke-linecap="round" stroke-miterlimit="10" pointer-events="none"/><path d="M 515.5 287.5 L 515.5 288.17 L 525.21 287.11 L 534.93 286.9 L 544.64 286.95 L 554.36 287.83 L 564.07 286.93 L 573.79 287.83 L 583.5 288.19 L 593.21 288.16 L 602.93 287.9 L 612.64 287.5 L 622.36 287.36 L 632.07 287.91 L 641.79 287.58 L 651.5 287.5 Q 663.5 287.5 663.5 299.5 L 663.29 299.5 L 663.64 308.83 L 663.59 318.17 L 662.96 327.5 L 663.82 336.83 L 663.21 346.17 L 663.5 355.5 Q 663.5 367.5 651.5 367.5 L 651.5 367.02 L 641.79 367.66 L 632.07 366.89 L 622.36 367.02 L 612.64 366.79 L 602.93 366.81 L 593.21 367.57 L 583.5 366.88 L 573.79 366.79 L 564.07 368.11 L 554.36 367.64 L 544.64 366.88 L 534.93 367.11 L 525.21 366.79 L 515.5 367.5 Q 503.5 367.5 503.5 355.5 L 503.84 355.5 L 504.18 346.17 L 503.93 336.83 L 503.97 327.5 L 504.08 318.17 L 502.83 308.83 L 503.5 299.5 Q 503.5 287.5 515.5 287.5 L 515.5 287.5 Z Z" fill="#000000" stroke="#000000" stroke-linejoin="round" stroke-linecap="round" stroke-miterlimit="10" transform="translate(2,3)" opacity="0.25"/><path d="M 515.5 287.5 L 515.5 288.17 L 525.21 287.11 L 534.93 286.9 L 544.64 286.95 L 554.36 287.83 L 564.07 286.93 L 573.79 287.83 L 583.5 288.19 L 593.21 288.16 L 602.93 287.9 L 612.64 287.5 L 622.36 287.36 L 632.07 287.91 L 641.79 287.58 L 651.5 287.5 Q 663.5 287.5 663.5 299.5 L 663.29 299.5 L 663.64 308.83 L 663.59 318.17 L 662.96 327.5 L 663.82 336.83 L 663.21 346.17 L 663.5 355.5 Q 663.5 367.5 651.5 367.5 L 651.5 367.02 L 641.79 367.66 L 632.07 366.89 L 622.36 367.02 L 612.64 366.79 L 602.93 366.81 L 593.21 367.57 L 583.5 366.88 L 573.79 366.79 L 564.07 368.11 L 554.36 367.64 L 544.64 366.88 L 534.93 367.11 L 525.21 366.79 L 515.5 367.5 Q 503.5 367.5 503.5 355.5 L 503.84 355.5 L 504.18 346.17 L 503.93 336.83 L 503.97 327.5 L 504.08 318.17 L 502.83 308.83 L 503.5 299.5 Q 503.5 287.5 515.5 287.5 L 515.5 287.5 Z Z" fill="#fff2cc" stroke="#d6b656" stroke-linejoin="round" stroke-linecap="round" stroke-miterlimit="10" pointer-events="none"/><g fill="#000000" font-family="Comic Sans MS" text-anchor="middle" font-size="24px"><text x="583" y="322.5">Enrichir le</text><text x="583" y="351.5">programme</text></g><path d="M 510 225 Q 509.67 256.67 546.75 256.67 Q 583.83 256.67 583.83 287.5" fill="none" stroke="#000000" stroke-linejoin="round" stroke-linecap="round" stroke-miterlimit="10" pointer-events="none"/><path d="M 659 447.5 L 659 448.09 L 669.25 446.76 L 679.5 447.02 L 689.75 447.78 L 700 446.83 L 710.25 448.05 L 720.5 447.45 L 730.75 447.66 L 741 447.5 Q 750 447.5 750 456.5 L 749.86 456.5 L 750.04 464.9 L 750.23 473.3 L 749.93 481.7 L 749.99 490.1 L 750 498.5 Q 750 507.5 741 507.5 L 741 507.94 L 730.75 507.81 L 720.5 508.04 L 710.25 507.31 L 700 507.57 L 689.75 506.75 L 679.5 506.85 L 669.25 507.29 L 659 507.5 Q 650 507.5 650 498.5 L 650 498.5 L 650.18 490.1 L 649.99 481.7 L 649.87 473.3 L 649.99 464.9 L 650 456.5 Q 650 447.5 659 447.5 L 659 447.5 Z Z" fill="#000000" stroke="#000000" stroke-linejoin="round" stroke-linecap="round" stroke-miterlimit="10" transform="translate(2,3)" opacity="0.25"/><path d="M 659 447.5 L 659 448.09 L 669.25 446.76 L 679.5 447.02 L 689.75 447.78 L 700 446.83 L 710.25 448.05 L 720.5 447.45 L 730.75 447.66 L 741 447.5 Q 750 447.5 750 456.5 L 749.86 456.5 L 750.04 464.9 L 750.23 473.3 L 749.93 481.7 L 749.99 490.1 L 750 498.5 Q 750 507.5 741 507.5 L 741 507.94 L 730.75 507.81 L 720.5 508.04 L 710.25 507.31 L 700 507.57 L 689.75 506.75 L 679.5 506.85 L 669.25 507.29 L 659 507.5 Q 650 507.5 650 498.5 L 650 498.5 L 650.18 490.1 L 649.99 481.7 L 649.87 473.3 L 649.99 464.9 L 650 456.5 Q 650 447.5 659 447.5 L 659 447.5 Z Z" fill="#fff2cc" stroke="#d6b656" stroke-linejoin="round" stroke-linecap="round" stroke-miterlimit="10" pointer-events="none"/><g fill="#000000" font-family="Comic Sans MS" text-anchor="middle" font-size="18px"><text x="699.5" y="473">Dimensions</text><text x="699.5" y="495">des pièces</text></g><path d="M 583.83 367.5 Q 583.83 407.5 641.75 407.5 Q 699.67 407.5 699.67 447.5" fill="none" stroke="#000000" stroke-linejoin="round" stroke-linecap="round" stroke-miterlimit="10" pointer-events="none"/><path d="M 539 437.5 L 539 437.48 L 549.25 437.41 L 559.5 438.12 L 569.75 437.65 L 580 437.97 L 590.25 437.81 L 600.5 438.18 L 610.75 437.91 L 621 437.5 Q 630 437.5 630 446.5 L 629.91 446.5 L 629.93 454.9 L 630.15 463.3 L 630.17 471.7 L 630.03 480.1 L 630 488.5 Q 630 497.5 621 497.5 L 621 498.15 L 610.75 497.89 L 600.5 497.72 L 590.25 497.33 L 580 496.9 L 569.75 496.8 L 559.5 496.95 L 549.25 496.98 L 539 497.5 Q 530 497.5 530 488.5 L 530 488.5 L 530.08 480.1 L 529.84 471.7 L 529.86 463.3 L 529.96 454.9 L 530 446.5 Q 530 437.5 539 437.5 L 539 437.5 Z Z" fill="#000000" stroke="#000000" stroke-linejoin="round" stroke-linecap="round" stroke-miterlimit="10" transform="translate(2,3)" opacity="0.25"/><path d="M 539 437.5 L 539 437.48 L 549.25 437.41 L 559.5 438.12 L 569.75 437.65 L 580 437.97 L 590.25 437.81 L 600.5 438.18 L 610.75 437.91 L 621 437.5 Q 630 437.5 630 446.5 L 629.91 446.5 L 629.93 454.9 L 630.15 463.3 L 630.17 471.7 L 630.03 480.1 L 630 488.5 Q 630 497.5 621 497.5 L 621 498.15 L 610.75 497.89 L 600.5 497.72 L 590.25 497.33 L 580 496.9 L 569.75 496.8 L 559.5 496.95 L 549.25 496.98 L 539 497.5 Q 530 497.5 530 488.5 L 530 488.5 L 530.08 480.1 L 529.84 471.7 L 529.86 463.3 L 529.96 454.9 L 530 446.5 Q 530 437.5 539 437.5 L 539 437.5 Z Z" fill="#fff2cc" stroke="#d6b656" stroke-linejoin="round" stroke-linecap="round" stroke-miterlimit="10" pointer-events="none"/><g fill="#000000" font-family="Comic Sans MS" text-anchor="middle" font-size="18px"><text x="579.5" y="463">Types</text><text x="579.5" y="485">construits</text></g><path d="M 583.83 367.5 Q 583.83 402.5 581.75 402.5 Q 579.67 402.5 579.67 437.5" fill="none" stroke="#000000" stroke-linejoin="round" stroke-linecap="round" stroke-miterlimit="10" pointer-events="none"/><path d="M 759 377.5 L 759 377.89 L 769.25 377.29 L 779.5 378.02 L 789.75 377.57 L 800 376.86 L 810.25 377.32 L 820.5 377.27 L 830.75 378.19 L 841 377.5 Q 850 377.5 850 386.5 L 850.16 386.5 L 849.75 394.9 L 849.8 403.3 L 850.11 411.7 L 850.13 420.1 L 850 428.5 Q 850 437.5 841 437.5 L 841 438.2 L 830.75 438.14 L 820.5 437.51 L 810.25 437.44 L 800 437.84 L 789.75 436.92 L 779.5 437.37 L 769.25 437.06 L 759 437.5 Q 750 437.5 750 428.5 L 750.18 428.5 L 750.09 420.1 L 750.07 411.7 L 749.8 403.3 L 750.12 394.9 L 750 386.5 Q 750 377.5 759 377.5 L 759 377.5 Z Z" fill="#000000" stroke="#000000" stroke-linejoin="round" stroke-linecap="round" stroke-miterlimit="10" transform="translate(2,3)" opacity="0.25"/><path d="M 759 377.5 L 759 377.89 L 769.25 377.29 L 779.5 378.02 L 789.75 377.57 L 800 376.86 L 810.25 377.32 L 820.5 377.27 L 830.75 378.19 L 841 377.5 Q 850 377.5 850 386.5 L 850.16 386.5 L 849.75 394.9 L 849.8 403.3 L 850.11 411.7 L 850.13 420.1 L 850 428.5 Q 850 437.5 841 437.5 L 841 438.2 L 830.75 438.14 L 820.5 437.51 L 810.25 437.44 L 800 437.84 L 789.75 436.92 L 779.5 437.37 L 769.25 437.06 L 759 437.5 Q 750 437.5 750 428.5 L 750.18 428.5 L 750.09 420.1 L 750.07 411.7 L 749.8 403.3 L 750.12 394.9 L 750 386.5 Q 750 377.5 759 377.5 L 759 377.5 Z Z" fill="#fff2cc" stroke="#d6b656" stroke-linejoin="round" stroke-linecap="round" stroke-miterlimit="10" pointer-events="none"/><g fill="#000000" font-family="Comic Sans MS" text-anchor="middle" font-size="18px"><text x="799.5" y="403">Epaisseurs</text><text x="799.5" y="425">de sciage</text></g><path d="M 663.5 327.5 Q 799.67 327.5 799.67 377.5" fill="none" stroke="#000000" stroke-linejoin="round" stroke-linecap="round" stroke-miterlimit="10" pointer-events="none"/><path d="M 31 375 L 31 375.05 L 40.89 374.96 L 50.78 375.38 L 60.67 375.6 L 70.56 374.59 L 80.44 374.74 L 90.33 375.58 L 100.22 375.54 L 110.11 374.28 L 120 375.05 L 129.89 374.34 L 139.78 375.64 L 149.67 375.61 L 159.56 374.99 L 169.44 374.51 L 179.33 374.63 L 189.22 374.7 L 199.11 374.87 L 209 375 Q 215 375 215 381 L 214.85 381 L 215.21 386.6 L 215.01 392.2 L 215.23 397.8 L 215.01 403.4 L 215 409 Q 215 415 209 415 L 209 414.82 L 199.11 414.99 L 189.22 415.73 L 179.33 414.71 L 169.44 414.73 L 159.56 414.57 L 149.67 414.86 L 139.78 415.54 L 129.89 415.67 L 120 415.6 L 110.11 415.41 L 100.22 415.24 L 90.33 415.05 L 80.44 415.24 L 70.56 414.86 L 60.67 415.22 L 50.78 414.73 L 40.89 414.67 L 31 415 Q 25 415 25 409 L 25.15 409 L 25.23 403.4 L 24.95 397.8 L 25.04 392.2 L 24.97 386.6 L 25 381 Q 25 375 31 375 L 31 375 Z Z" fill="#000000" stroke="#000000" stroke-linejoin="round" stroke-linecap="round" stroke-miterlimit="10" transform="translate(2,3)" opacity="0.25"/><path d="M 31 375 L 31 375.05 L 40.89 374.96 L 50.78 375.38 L 60.67 375.6 L 70.56 374.59 L 80.44 374.74 L 90.33 375.58 L 100.22 375.54 L 110.11 374.28 L 120 375.05 L 129.89 374.34 L 139.78 375.64 L 149.67 375.61 L 159.56 374.99 L 169.44 374.51 L 179.33 374.63 L 189.22 374.7 L 199.11 374.87 L 209 375 Q 215 375 215 381 L 214.85 381 L 215.21 386.6 L 215.01 392.2 L 215.23 397.8 L 215.01 403.4 L 215 409 Q 215 415 209 415 L 209 414.82 L 199.11 414.99 L 189.22 415.73 L 179.33 414.71 L 169.44 414.73 L 159.56 414.57 L 149.67 414.86 L 139.78 415.54 L 129.89 415.67 L 120 415.6 L 110.11 415.41 L 100.22 415.24 L 90.33 415.05 L 80.44 415.24 L 70.56 414.86 L 60.67 415.22 L 50.78 414.73 L 40.89 414.67 L 31 415 Q 25 415 25 409 L 25.15 409 L 25.23 403.4 L 24.95 397.8 L 25.04 392.2 L 24.97 386.6 L 25 381 Q 25 375 31 375 L 31 375 Z Z" fill="#e1d5e7" stroke="#9673a6" stroke-linejoin="round" stroke-linecap="round" stroke-miterlimit="10" pointer-events="none"/><g fill="#000000" font-family="Comic Sans MS" text-anchor="middle" font-size="18px"><text x="119.5" y="401.5">iPython.display  SVG()</text></g><path d="M 299.67 352.5 Q 299.67 364.17 209.67 364.17 Q 119.67 364.17 119.67 375" fill="none" stroke="#000000" stroke-linejoin="round" stroke-linecap="round" stroke-miterlimit="10" pointer-events="none"/><path d="M 191 427.5 L 191 427.99 L 200.71 427.7 L 210.43 426.88 L 220.14 426.87 L 229.86 428.21 L 239.57 427.53 L 249.29 428.1 L 259 427.5 Q 265 427.5 265 433.5 L 264.83 433.5 L 265.22 439.1 L 264.81 444.7 L 265.2 450.3 L 265.16 455.9 L 265 461.5 Q 265 467.5 259 467.5 L 259 468.02 L 249.29 466.96 L 239.57 467.23 L 229.86 467.93 L 220.14 467.99 L 210.43 467.1 L 200.71 468.08 L 191 467.5 Q 185 467.5 185 461.5 L 184.87 461.5 L 184.96 455.9 L 184.79 450.3 L 185.25 444.7 L 185.02 439.1 L 185 433.5 Q 185 427.5 191 427.5 L 191 427.5 Z Z" fill="#000000" stroke="#000000" stroke-linejoin="round" stroke-linecap="round" stroke-miterlimit="10" transform="translate(2,3)" opacity="0.25"/><path d="M 191 427.5 L 191 427.99 L 200.71 427.7 L 210.43 426.88 L 220.14 426.87 L 229.86 428.21 L 239.57 427.53 L 249.29 428.1 L 259 427.5 Q 265 427.5 265 433.5 L 264.83 433.5 L 265.22 439.1 L 264.81 444.7 L 265.2 450.3 L 265.16 455.9 L 265 461.5 Q 265 467.5 259 467.5 L 259 468.02 L 249.29 466.96 L 239.57 467.23 L 229.86 467.93 L 220.14 467.99 L 210.43 467.1 L 200.71 468.08 L 191 467.5 Q 185 467.5 185 461.5 L 184.87 461.5 L 184.96 455.9 L 184.79 450.3 L 185.25 444.7 L 185.02 439.1 L 185 433.5 Q 185 427.5 191 427.5 L 191 427.5 Z Z" fill="#e1d5e7" stroke="#9673a6" stroke-linejoin="round" stroke-linecap="round" stroke-miterlimit="10" pointer-events="none"/><g fill="#000000" font-family="Comic Sans MS" text-anchor="middle" font-size="18px"><text x="224.5" y="454">Pillow</text></g><path d="M 6 316 L 6 316.1 L 15.82 316.69 L 25.64 315.47 L 35.45 315.85 L 45.27 315.74 L 55.09 315.65 L 64.91 315.68 L 74.73 315.79 L 84.55 316.33 L 94.36 316.11 L 104.18 315.32 L 114 316 Q 120 316 120 322 L 120 322 L 119.93 327.6 L 119.89 333.2 L 119.88 338.8 L 120.16 344.4 L 120 350 Q 120 356 114 356 L 114 355.32 L 104.18 355.89 L 94.36 355.36 L 84.55 355.71 L 74.73 355.47 L 64.91 355.89 L 55.09 356.2 L 45.27 355.37 L 35.45 356.03 L 25.64 355.44 L 15.82 355.63 L 6 356 Q 0 356 0 350 L 0.13 350 L -0.16 344.4 L 0.05 338.8 L 0.14 333.2 L 0.2 327.6 L 0 322 Q 0 316 6 316 L 6 316 Z Z" fill="#000000" stroke="#000000" stroke-linejoin="round" stroke-linecap="round" stroke-miterlimit="10" transform="translate(2,3)" opacity="0.25"/><path d="M 6 316 L 6 316.1 L 15.82 316.69 L 25.64 315.47 L 35.45 315.85 L 45.27 315.74 L 55.09 315.65 L 64.91 315.68 L 74.73 315.79 L 84.55 316.33 L 94.36 316.11 L 104.18 315.32 L 114 316 Q 120 316 120 322 L 120 322 L 119.93 327.6 L 119.89 333.2 L 119.88 338.8 L 120.16 344.4 L 120 350 Q 120 356 114 356 L 114 355.32 L 104.18 355.89 L 94.36 355.36 L 84.55 355.71 L 74.73 355.47 L 64.91 355.89 L 55.09 356.2 L 45.27 355.37 L 35.45 356.03 L 25.64 355.44 L 15.82 355.63 L 6 356 Q 0 356 0 350 L 0.13 350 L -0.16 344.4 L 0.05 338.8 L 0.14 333.2 L 0.2 327.6 L 0 322 Q 0 316 6 316 L 6 316 Z Z" fill="#e1d5e7" stroke="#9673a6" stroke-linejoin="round" stroke-linecap="round" stroke-miterlimit="10" pointer-events="none"/><g fill="#000000" font-family="Comic Sans MS" text-anchor="middle" font-size="18px"><text x="59.5" y="342.5">ipythonblocks</text></g><path d="M 260 312.5 Q 189.67 312.5 189.67 319.17 Q 189.67 325.83 119.67 325.83" fill="none" stroke="#000000" stroke-linejoin="round" stroke-linecap="round" stroke-miterlimit="10" pointer-events="none"/><path d="M 45.5 260 L 45.5 260.47 L 55.28 259.59 L 65.06 259.36 L 74.83 259.8 L 84.61 259.3 L 94.39 259.54 L 104.17 260.38 L 113.94 260.72 L 123.72 260.47 L 133.5 260 Q 139.5 260 139.5 266 L 139.27 266 L 139.54 271.6 L 139.58 277.2 L 139.47 282.8 L 139.49 288.4 L 139.5 294 Q 139.5 300 133.5 300 L 133.5 300.13 L 123.72 300.57 L 113.94 299.99 L 104.17 299.88 L 94.39 299.93 L 84.61 299.74 L 74.83 299.29 L 65.06 300.61 L 55.28 299.65 L 45.5 300 Q 39.5 300 39.5 294 L 39.48 294 L 39.66 288.4 L 39.33 282.8 L 39.64 277.2 L 39.72 271.6 L 39.5 266 Q 39.5 260 45.5 260 L 45.5 260 Z Z" fill="#000000" stroke="#000000" stroke-linejoin="round" stroke-linecap="round" stroke-miterlimit="10" transform="translate(2,3)" opacity="0.25"/><path d="M 45.5 260 L 45.5 260.47 L 55.28 259.59 L 65.06 259.36 L 74.83 259.8 L 84.61 259.3 L 94.39 259.54 L 104.17 260.38 L 113.94 260.72 L 123.72 260.47 L 133.5 260 Q 139.5 260 139.5 266 L 139.27 266 L 139.54 271.6 L 139.58 277.2 L 139.47 282.8 L 139.49 288.4 L 139.5 294 Q 139.5 300 133.5 300 L 133.5 300.13 L 123.72 300.57 L 113.94 299.99 L 104.17 299.88 L 94.39 299.93 L 84.61 299.74 L 74.83 299.29 L 65.06 300.61 L 55.28 299.65 L 45.5 300 Q 39.5 300 39.5 294 L 39.48 294 L 39.66 288.4 L 39.33 282.8 L 39.64 277.2 L 39.72 271.6 L 39.5 266 Q 39.5 260 45.5 260 L 45.5 260 Z Z" fill="#e1d5e7" stroke="#9673a6" stroke-linejoin="round" stroke-linecap="round" stroke-miterlimit="10" pointer-events="none"/><g fill="#000000" font-family="Comic Sans MS" text-anchor="middle" font-size="18px"><text x="89" y="286.5">ipyturtle</text></g><path d="M 260 312.5 Q 199.67 312.5 199.67 296.25 Q 199.67 280 139.5 280" fill="none" stroke="#000000" stroke-linejoin="round" stroke-linecap="round" stroke-miterlimit="10" pointer-events="none"/><path d="M 419 400 L 419 400.35 L 429.25 399.95 L 439.5 399.39 L 449.75 400.27 L 460 399.29 L 470.25 399.49 L 480.5 399.46 L 490.75 400.2 L 501 400 Q 510 400 510 409 L 510.09 409 L 509.98 417.4 L 510.17 425.8 L 510.23 434.2 L 509.76 442.6 L 510 451 Q 510 460 501 460 L 501 459.28 L 490.75 460.13 L 480.5 460.41 L 470.25 460.63 L 460 459.28 L 449.75 459.8 L 439.5 459.54 L 429.25 460.7 L 419 460 Q 410 460 410 451 L 410.23 451 L 410 442.6 L 410.15 434.2 L 409.8 425.8 L 409.76 417.4 L 410 409 Q 410 400 419 400 L 419 400 Z Z" fill="#000000" stroke="#000000" stroke-linejoin="round" stroke-linecap="round" stroke-miterlimit="10" transform="translate(2,3)" opacity="0.25"/><path d="M 419 400 L 419 400.35 L 429.25 399.95 L 439.5 399.39 L 449.75 400.27 L 460 399.29 L 470.25 399.49 L 480.5 399.46 L 490.75 400.2 L 501 400 Q 510 400 510 409 L 510.09 409 L 509.98 417.4 L 510.17 425.8 L 510.23 434.2 L 509.76 442.6 L 510 451 Q 510 460 501 460 L 501 459.28 L 490.75 460.13 L 480.5 460.41 L 470.25 460.63 L 460 459.28 L 449.75 459.8 L 439.5 459.54 L 429.25 460.7 L 419 460 Q 410 460 410 451 L 410.23 451 L 410 442.6 L 410.15 434.2 L 409.8 425.8 L 409.76 417.4 L 410 409 Q 410 400 419 400 L 419 400 Z Z" fill="#fff2cc" stroke="#d6b656" stroke-linejoin="round" stroke-linecap="round" stroke-miterlimit="10" pointer-events="none"/><g fill="#000000" font-family="Comic Sans MS" text-anchor="middle" font-size="18px"><text x="459.5" y="436.5">.../...</text></g><path d="M 543.83 367.5 Q 543.83 384.17 501.75 384.17 Q 459.67 384.17 459.67 400" fill="none" stroke="#000000" stroke-linejoin="round" stroke-linecap="round" stroke-miterlimit="10" pointer-events="none"/><path d="M 297.5 430 L 297.5 429.94 L 306.94 430.38 L 316.39 429.5 L 325.83 430.22 L 335.28 429.98 L 344.72 429.41 L 354.17 429.39 L 363.61 430.41 L 373.06 429.96 L 382.5 430 Q 388.5 430 388.5 436 L 388.48 436 L 388.26 441.6 L 388.52 447.2 L 388.7 452.8 L 388.65 458.4 L 388.5 464 Q 388.5 470 382.5 470 L 382.5 470.02 L 373.06 469.82 L 363.61 469.89 L 354.17 470.31 L 344.72 469.6 L 335.28 470.54 L 325.83 470.22 L 316.39 469.53 L 306.94 470.61 L 297.5 470 Q 291.5 470 291.5 464 L 291.35 464 L 291.57 458.4 L 291.39 452.8 L 291.57 447.2 L 291.72 441.6 L 291.5 436 Q 291.5 430 297.5 430 L 297.5 430 Z Z" fill="#000000" stroke="#000000" stroke-linejoin="round" stroke-linecap="round" stroke-miterlimit="10" transform="translate(2,3)" opacity="0.25"/><path d="M 297.5 430 L 297.5 429.94 L 306.94 430.38 L 316.39 429.5 L 325.83 430.22 L 335.28 429.98 L 344.72 429.41 L 354.17 429.39 L 363.61 430.41 L 373.06 429.96 L 382.5 430 Q 388.5 430 388.5 436 L 388.48 436 L 388.26 441.6 L 388.52 447.2 L 388.7 452.8 L 388.65 458.4 L 388.5 464 Q 388.5 470 382.5 470 L 382.5 470.02 L 373.06 469.82 L 363.61 469.89 L 354.17 470.31 L 344.72 469.6 L 335.28 470.54 L 325.83 470.22 L 316.39 469.53 L 306.94 470.61 L 297.5 470 Q 291.5 470 291.5 464 L 291.35 464 L 291.57 458.4 L 291.39 452.8 L 291.57 447.2 L 291.72 441.6 L 291.5 436 Q 291.5 430 297.5 430 L 297.5 430 Z Z" fill="#e1d5e7" stroke="#9673a6" stroke-linejoin="round" stroke-linecap="round" stroke-miterlimit="10" pointer-events="none"/><g fill="#000000" font-family="Comic Sans MS" text-anchor="middle" font-size="18px"><text x="339.5" y="456.5">.../...</text></g><path d="M 333 355 Q 333 391.67 336.33 391.67 Q 339.67 391.67 339.67 430" fill="none" stroke="#000000" stroke-linejoin="round" stroke-linecap="round" stroke-miterlimit="10" pointer-events="none"/><path d="M 332.17 354.17 Q 332.17 390 297.58 390 Q 263 390 263 429.17" fill="none" stroke="#000000" stroke-linejoin="round" stroke-linecap="round" stroke-miterlimit="10" pointer-events="none"/><path d="M 121 205 L 121 205.39 L 130.78 204.67 L 140.56 204.51 L 150.33 204.52 L 160.11 205.37 L 169.89 204.65 L 179.67 204.94 L 189.44 205.31 L 199.22 205.31 L 209 205 Q 215 205 215 211 L 214.95 211 L 214.84 216.6 L 215.18 222.2 L 214.79 227.8 L 215.11 233.4 L 215 239 Q 215 245 209 245 L 209 244.3 L 199.22 244.8 L 189.44 245.57 L 179.67 244.35 L 169.89 244.55 L 160.11 244.65 L 150.33 245.39 L 140.56 245.17 L 130.78 244.61 L 121 245 Q 115 245 115 239 L 114.98 239 L 115.14 233.4 L 114.94 227.8 L 114.78 222.2 L 115.15 216.6 L 115 211 Q 115 205 121 205 L 121 205 Z Z" fill="#000000" stroke="#000000" stroke-linejoin="round" stroke-linecap="round" stroke-miterlimit="10" transform="translate(2,3)" opacity="0.25"/><path d="M 121 205 L 121 205.39 L 130.78 204.67 L 140.56 204.51 L 150.33 204.52 L 160.11 205.37 L 169.89 204.65 L 179.67 204.94 L 189.44 205.31 L 199.22 205.31 L 209 205 Q 215 205 215 211 L 214.95 211 L 214.84 216.6 L 215.18 222.2 L 214.79 227.8 L 215.11 233.4 L 215 239 Q 215 245 209 245 L 209 244.3 L 199.22 244.8 L 189.44 245.57 L 179.67 244.35 L 169.89 244.55 L 160.11 244.65 L 150.33 245.39 L 140.56 245.17 L 130.78 244.61 L 121 245 Q 115 245 115 239 L 114.98 239 L 115.14 233.4 L 114.94 227.8 L 114.78 222.2 L 115.15 216.6 L 115 211 Q 115 205 121 205 L 121 205 Z Z" fill="#e1d5e7" stroke="#9673a6" stroke-linejoin="round" stroke-linecap="round" stroke-miterlimit="10" pointer-events="none"/><g fill="#000000" font-family="Comic Sans MS" text-anchor="middle" font-size="18px"><text x="164.5" y="231.5">Graphe ?</text></g><path d="M 258 282.5 Q 164.67 282.5 164.67 245" fill="none" stroke="#000000" stroke-linejoin="round" stroke-linecap="round" stroke-miterlimit="10" pointer-events="none"/></g></svg>