<?xml version="1.0" encoding="UTF-8"?>
<!DOCTYPE svg PUBLIC "-//W3C//DTD SVG 1.1//EN" "http://www.w3.org/Graphics/SVG/1.1/DTD/svg11.dtd">
<svg xmlns="http://www.w3.org/2000/svg" xmlns:xlink="http://www.w3.org/1999/xlink" version="1.1" width="935px" height="513px" viewBox="-0.5 -0.5 935 513" style="background-color: rgb(255, 255, 255);"><defs/><g><ellipse cx="511" cy="176" rx="110" ry="50" fill="#000000" stroke="#000000" stroke-width="4" transform="translate(2,3)" opacity="0.25"/><ellipse cx="511" cy="176" rx="110" ry="50" fill="#f5f5f5" stroke="#666666" stroke-width="4" pointer-events="none"/><g fill="#333333" font-family="Comic Sans MS" text-anchor="middle" font-size="30px"><text x="510" y="170">Activités</text><text x="510" y="206">didactiques</text></g><path d="M 108.75 101 L 108.75 101.07 L 119.05 101.39 L 129.35 100.5 L 139.65 100.75 L 149.95 100.52 L 160.25 100.92 L 170.55 100.31 L 180.85 100.3 L 191.15 101.33 L 201.45 101.32 L 211.75 101.33 L 222.05 101.12 L 232.35 101.53 L 242.65 101.7 L 252.95 101.4 L 263.25 101 Q 276 101 276 113.75 L 276.54 113.75 L 276.11 123.67 L 276.02 133.58 L 275.35 143.5 L 276.48 153.42 L 276.51 163.33 L 276 173.25 Q 276 186 263.25 186 L 263.25 186.49 L 252.95 185.95 L 242.65 185.35 L 232.35 186.02 L 222.05 186.13 L 211.75 186.74 L 201.45 185.49 L 191.15 185.52 L 180.85 185.84 L 170.55 185.53 L 160.25 185.8 L 149.95 185.25 L 139.65 186.29 L 129.35 186.52 L 119.05 185.43 L 108.75 186 Q 96 186 96 173.25 L 96.51 173.25 L 95.8 163.33 L 95.36 153.42 L 95.55 143.5 L 96.24 133.58 L 96.48 123.67 L 96 113.75 Q 96 101 108.75 101 L 108.75 101 Z Z" fill="#000000" stroke="#000000" stroke-width="3" stroke-linejoin="round" stroke-linecap="round" stroke-miterlimit="10" transform="translate(2,3)" opacity="0.25"/><path d="M 108.75 101 L 108.75 101.07 L 119.05 101.39 L 129.35 100.5 L 139.65 100.75 L 149.95 100.52 L 160.25 100.92 L 170.55 100.31 L 180.85 100.3 L 191.15 101.33 L 201.45 101.32 L 211.75 101.33 L 222.05 101.12 L 232.35 101.53 L 242.65 101.7 L 252.95 101.4 L 263.25 101 Q 276 101 276 113.75 L 276.54 113.75 L 276.11 123.67 L 276.02 133.58 L 275.35 143.5 L 276.48 153.42 L 276.51 163.33 L 276 173.25 Q 276 186 263.25 186 L 263.25 186.49 L 252.95 185.95 L 242.65 185.35 L 232.35 186.02 L 222.05 186.13 L 211.75 186.74 L 201.45 185.49 L 191.15 185.52 L 180.85 185.84 L 170.55 185.53 L 160.25 185.8 L 149.95 185.25 L 139.65 186.29 L 129.35 186.52 L 119.05 185.43 L 108.75 186 Q 96 186 96 173.25 L 96.51 173.25 L 95.8 163.33 L 95.36 153.42 L 95.55 143.5 L 96.24 133.58 L 96.48 123.67 L 96 113.75 Q 96 101 108.75 101 L 108.75 101 Z Z" fill="#ccffff" stroke="#0e8088" stroke-width="3" stroke-linejoin="round" stroke-linecap="round" stroke-miterlimit="10" pointer-events="none"/><g fill="#000000" font-family="Comic Sans MS" text-anchor="middle" font-size="24px"><text x="185.5" y="138.5">Programmation</text><text x="185.5" y="167.5">Dynamique...</text></g><path d="M 397 176 Q 339 176 339 160 Q 339 144 280 144" fill="none" stroke="#000000" stroke-linejoin="round" stroke-linecap="round" stroke-miterlimit="10" pointer-events="none"/><path d="M 623 1 L 623 1.12 L 632.71 0.85 L 642.43 0.93 L 652.14 1.03 L 661.86 0.49 L 671.57 0.75 L 681.29 0.52 L 691 1.13 L 700.71 1.49 L 710.43 0.72 L 720.14 1.1 L 729.86 1.41 L 739.57 1.33 L 749.29 1.36 L 759 1 Q 771 1 771 13 L 771.19 13 L 770.64 22.33 L 771.2 31.67 L 771.71 41 L 771.3 50.33 L 770.51 59.67 L 771 69 Q 771 81 759 81 L 759 80.6 L 749.29 80.39 L 739.57 80.41 L 729.86 80.96 L 720.14 81.08 L 710.43 81.58 L 700.71 80.92 L 691 80.71 L 681.29 80.35 L 671.57 80.43 L 661.86 81.06 L 652.14 80.81 L 642.43 81.59 L 632.71 81.07 L 623 81 Q 611 81 611 69 L 610.66 69 L 611.43 59.67 L 610.91 50.33 L 610.29 41 L 610.89 31.67 L 610.65 22.33 L 611 13 Q 611 1 623 1 L 623 1 Z Z" fill="#000000" stroke="#000000" stroke-width="3" stroke-linejoin="round" stroke-linecap="round" stroke-miterlimit="10" transform="translate(2,3)" opacity="0.25"/><path d="M 623 1 L 623 1.12 L 632.71 0.85 L 642.43 0.93 L 652.14 1.03 L 661.86 0.49 L 671.57 0.75 L 681.29 0.52 L 691 1.13 L 700.71 1.49 L 710.43 0.72 L 720.14 1.1 L 729.86 1.41 L 739.57 1.33 L 749.29 1.36 L 759 1 Q 771 1 771 13 L 771.19 13 L 770.64 22.33 L 771.2 31.67 L 771.71 41 L 771.3 50.33 L 770.51 59.67 L 771 69 Q 771 81 759 81 L 759 80.6 L 749.29 80.39 L 739.57 80.41 L 729.86 80.96 L 720.14 81.08 L 710.43 81.58 L 700.71 80.92 L 691 80.71 L 681.29 80.35 L 671.57 80.43 L 661.86 81.06 L 652.14 80.81 L 642.43 81.59 L 632.71 81.07 L 623 81 Q 611 81 611 69 L 610.66 69 L 611.43 59.67 L 610.91 50.33 L 610.29 41 L 610.89 31.67 L 610.65 22.33 L 611 13 Q 611 1 623 1 L 623 1 Z Z" fill="#dae8fc" stroke="#6c8ebf" stroke-width="3" stroke-linejoin="round" stroke-linecap="round" stroke-miterlimit="10" pointer-events="none"/><g fill="#000000" font-family="Comic Sans MS" text-anchor="middle" font-size="24px"><text x="690.5" y="36">Analyser</text><text x="690.5" y="65"> la récursivité</text></g><path d="M 531 122.84 Q 531 103 611 103 Q 691 103 691 85" fill="none" stroke="#000000" stroke-linejoin="round" stroke-linecap="round" stroke-miterlimit="10" pointer-events="none"/><path d="M 273 273.5 L 273 272.82 L 282.71 273.11 L 292.43 274.15 L 302.14 272.93 L 311.86 273.57 L 321.57 273.49 L 331.29 273.43 L 341 273.92 L 350.71 273.18 L 360.43 273.41 L 370.14 273.92 L 379.86 273.81 L 389.57 273.54 L 399.29 273.97 L 409 273.5 Q 421 273.5 421 285.5 L 421.62 285.5 L 421.29 294.83 L 421.61 304.17 L 421.37 313.5 L 421.54 322.83 L 421.41 332.17 L 421 341.5 Q 421 353.5 409 353.5 L 409 354.01 L 399.29 354.15 L 389.57 352.81 L 379.86 353.09 L 370.14 353.4 L 360.43 353.99 L 350.71 353.81 L 341 353.28 L 331.29 353.26 L 321.57 353.39 L 311.86 353.06 L 302.14 353.72 L 292.43 352.89 L 282.71 352.85 L 273 353.5 Q 261 353.5 261 341.5 L 260.69 341.5 L 261.4 332.17 L 260.98 322.83 L 260.33 313.5 L 261.72 304.17 L 260.66 294.83 L 261 285.5 Q 261 273.5 273 273.5 L 273 273.5 Z Z" fill="#000000" stroke="#000000" stroke-width="3" stroke-linejoin="round" stroke-linecap="round" stroke-miterlimit="10" transform="translate(2,3)" opacity="0.25"/><path d="M 273 273.5 L 273 272.82 L 282.71 273.11 L 292.43 274.15 L 302.14 272.93 L 311.86 273.57 L 321.57 273.49 L 331.29 273.43 L 341 273.92 L 350.71 273.18 L 360.43 273.41 L 370.14 273.92 L 379.86 273.81 L 389.57 273.54 L 399.29 273.97 L 409 273.5 Q 421 273.5 421 285.5 L 421.62 285.5 L 421.29 294.83 L 421.61 304.17 L 421.37 313.5 L 421.54 322.83 L 421.41 332.17 L 421 341.5 Q 421 353.5 409 353.5 L 409 354.01 L 399.29 354.15 L 389.57 352.81 L 379.86 353.09 L 370.14 353.4 L 360.43 353.99 L 350.71 353.81 L 341 353.28 L 331.29 353.26 L 321.57 353.39 L 311.86 353.06 L 302.14 353.72 L 292.43 352.89 L 282.71 352.85 L 273 353.5 Q 261 353.5 261 341.5 L 260.69 341.5 L 261.4 332.17 L 260.98 322.83 L 260.33 313.5 L 261.72 304.17 L 260.66 294.83 L 261 285.5 Q 261 273.5 273 273.5 L 273 273.5 Z Z" fill="#e1d5e7" stroke="#9673a6" stroke-width="3" stroke-linejoin="round" stroke-linecap="round" stroke-miterlimit="10" pointer-events="none"/><g fill="#000000" font-family="Comic Sans MS" text-anchor="middle" font-size="24px"><text x="340.5" y="308.5">Dessiner un</text><text x="340.5" y="337.5">plan du débit</text></g><path d="M 461 224.53 Q 461 250 401 250 Q 341 250 340 273" fill="none" stroke="#000000" stroke-linejoin="round" stroke-linecap="round" stroke-miterlimit="10" pointer-events="none"/><path d="M 783 111 L 783 110.46 L 792.71 110.99 L 802.43 110.61 L 812.14 110.76 L 821.86 111.38 L 831.57 111.53 L 841.29 110.6 L 851 110.48 L 860.71 111.59 L 870.43 111.04 L 880.14 110.97 L 889.86 111.57 L 899.57 111.56 L 909.29 110.86 L 919 111 Q 931 111 931 123 L 930.75 123 L 930.6 132.33 L 930.67 141.67 L 931 151 L 930.95 160.33 L 930.55 169.67 L 931 179 Q 931 191 919 191 L 919 190.96 L 909.29 190.59 L 899.57 190.72 L 889.86 190.37 L 880.14 190.62 L 870.43 191.07 L 860.71 191.56 L 851 190.72 L 841.29 190.57 L 831.57 190.71 L 821.86 191.11 L 812.14 190.63 L 802.43 190.9 L 792.71 190.64 L 783 191 Q 771 191 771 179 L 771.59 179 L 771.4 169.67 L 771.48 160.33 L 770.77 151 L 770.38 141.67 L 771.6 132.33 L 771 123 Q 771 111 783 111 L 783 111 Z Z" fill="#000000" stroke="#000000" stroke-width="3" stroke-linejoin="round" stroke-linecap="round" stroke-miterlimit="10" transform="translate(2,3)" opacity="0.25"/><path d="M 783 111 L 783 110.46 L 792.71 110.99 L 802.43 110.61 L 812.14 110.76 L 821.86 111.38 L 831.57 111.53 L 841.29 110.6 L 851 110.48 L 860.71 111.59 L 870.43 111.04 L 880.14 110.97 L 889.86 111.57 L 899.57 111.56 L 909.29 110.86 L 919 111 Q 931 111 931 123 L 930.75 123 L 930.6 132.33 L 930.67 141.67 L 931 151 L 930.95 160.33 L 930.55 169.67 L 931 179 Q 931 191 919 191 L 919 190.96 L 909.29 190.59 L 899.57 190.72 L 889.86 190.37 L 880.14 190.62 L 870.43 191.07 L 860.71 191.56 L 851 190.72 L 841.29 190.57 L 831.57 190.71 L 821.86 191.11 L 812.14 190.63 L 802.43 190.9 L 792.71 190.64 L 783 191 Q 771 191 771 179 L 771.59 179 L 771.4 169.67 L 771.48 160.33 L 770.77 151 L 770.38 141.67 L 771.6 132.33 L 771 123 Q 771 111 783 111 L 783 111 Z Z" fill="#d5e8d4" stroke="#82b366" stroke-width="3" stroke-linejoin="round" stroke-linecap="round" stroke-miterlimit="10" pointer-events="none"/><g fill="#000000" font-family="Comic Sans MS" text-anchor="middle" font-size="24px"><text x="850.5" y="146">Spécifier</text><text x="850.5" y="175">Documenter</text></g><path d="M 625 176 Q 696 176 696 163.5 Q 696 151 767 151" fill="none" stroke="#000000" stroke-linejoin="round" stroke-linecap="round" stroke-miterlimit="10" pointer-events="none"/><path d="M 263 1 L 263 1.32 L 272.71 0.38 L 282.43 0.57 L 292.14 1.12 L 301.86 0.72 L 311.57 1.04 L 321.29 0.49 L 331 1.6 L 340.71 1.15 L 350.43 0.81 L 360.14 0.31 L 369.86 0.58 L 379.57 0.41 L 389.29 1.41 L 399 1 Q 411 1 411 13 L 410.77 13 L 410.96 22.33 L 410.4 31.67 L 410.77 41 L 411.67 50.33 L 411.72 59.67 L 411 69 Q 411 81 399 81 L 399 80.56 L 389.29 81.73 L 379.57 81.62 L 369.86 81.19 L 360.14 80.74 L 350.43 81.19 L 340.71 80.4 L 331 81.49 L 321.29 80.27 L 311.57 80.3 L 301.86 80.97 L 292.14 81.21 L 282.43 80.31 L 272.71 81.35 L 263 81 Q 251 81 251 69 L 250.6 69 L 251.11 59.67 L 250.86 50.33 L 251.13 41 L 251.34 31.67 L 251.38 22.33 L 251 13 Q 251 1 263 1 L 263 1 Z Z" fill="#000000" stroke="#000000" stroke-width="3" stroke-linejoin="round" stroke-linecap="round" stroke-miterlimit="10" transform="translate(2,3)" opacity="0.25"/><path d="M 263 1 L 263 1.32 L 272.71 0.38 L 282.43 0.57 L 292.14 1.12 L 301.86 0.72 L 311.57 1.04 L 321.29 0.49 L 331 1.6 L 340.71 1.15 L 350.43 0.81 L 360.14 0.31 L 369.86 0.58 L 379.57 0.41 L 389.29 1.41 L 399 1 Q 411 1 411 13 L 410.77 13 L 410.96 22.33 L 410.4 31.67 L 410.77 41 L 411.67 50.33 L 411.72 59.67 L 411 69 Q 411 81 399 81 L 399 80.56 L 389.29 81.73 L 379.57 81.62 L 369.86 81.19 L 360.14 80.74 L 350.43 81.19 L 340.71 80.4 L 331 81.49 L 321.29 80.27 L 311.57 80.3 L 301.86 80.97 L 292.14 81.21 L 282.43 80.31 L 272.71 81.35 L 263 81 Q 251 81 251 69 L 250.6 69 L 251.11 59.67 L 250.86 50.33 L 251.13 41 L 251.34 31.67 L 251.38 22.33 L 251 13 Q 251 1 263 1 L 263 1 Z Z" fill="#f8cecc" stroke="#b85450" stroke-width="3" stroke-linejoin="round" stroke-linecap="round" stroke-miterlimit="10" pointer-events="none"/><g fill="#000000" font-family="Comic Sans MS" text-anchor="middle" font-size="24px"><text x="330.5" y="36">Bilan, analyse</text><text x="330.5" y="65">critique</text></g><path d="M 491 122.84 Q 491 103 411 103 Q 331 103 331 85" fill="none" stroke="#000000" stroke-linejoin="round" stroke-linecap="round" stroke-miterlimit="10" pointer-events="none"/><path d="M 773 241 L 773 241.18 L 782.71 241.63 L 792.43 241.47 L 802.14 241.24 L 811.86 241.54 L 821.57 240.89 L 831.29 241.33 L 841 240.63 L 850.71 240.8 L 860.43 240.68 L 870.14 241.27 L 879.86 240.67 L 889.57 240.8 L 899.29 240.91 L 909 241 Q 921 241 921 253 L 921.02 253 L 920.85 262.33 L 921.66 271.67 L 920.31 281 L 920.26 290.33 L 921.74 299.67 L 921 309 Q 921 321 909 321 L 909 320.71 L 899.29 321.42 L 889.57 321.7 L 879.86 320.87 L 870.14 320.7 L 860.43 321.49 L 850.71 320.9 L 841 321.44 L 831.29 321.31 L 821.57 320.52 L 811.86 320.34 L 802.14 320.97 L 792.43 321.45 L 782.71 320.93 L 773 321 Q 761 321 761 309 L 760.44 309 L 761.69 299.67 L 760.55 290.33 L 761.05 281 L 760.81 271.67 L 761.46 262.33 L 761 253 Q 761 241 773 241 L 773 241 Z Z" fill="#000000" stroke="#000000" stroke-width="3" stroke-linejoin="round" stroke-linecap="round" stroke-miterlimit="10" transform="translate(2,3)" opacity="0.25"/><path d="M 773 241 L 773 241.18 L 782.71 241.63 L 792.43 241.47 L 802.14 241.24 L 811.86 241.54 L 821.57 240.89 L 831.29 241.33 L 841 240.63 L 850.71 240.8 L 860.43 240.68 L 870.14 241.27 L 879.86 240.67 L 889.57 240.8 L 899.29 240.91 L 909 241 Q 921 241 921 253 L 921.02 253 L 920.85 262.33 L 921.66 271.67 L 920.31 281 L 920.26 290.33 L 921.74 299.67 L 921 309 Q 921 321 909 321 L 909 320.71 L 899.29 321.42 L 889.57 321.7 L 879.86 320.87 L 870.14 320.7 L 860.43 321.49 L 850.71 320.9 L 841 321.44 L 831.29 321.31 L 821.57 320.52 L 811.86 320.34 L 802.14 320.97 L 792.43 321.45 L 782.71 320.93 L 773 321 Q 761 321 761 309 L 760.44 309 L 761.69 299.67 L 760.55 290.33 L 761.05 281 L 760.81 271.67 L 761.46 262.33 L 761 253 Q 761 241 773 241 L 773 241 Z Z" fill="#ffe6cc" stroke="#d79b00" stroke-width="3" stroke-linejoin="round" stroke-linecap="round" stroke-miterlimit="10" pointer-events="none"/><g fill="#000000" font-family="Comic Sans MS" text-anchor="middle" font-size="24px"><text x="840.5" y="276">Faire des</text><text x="840.5" y="305">jeux de test</text></g><path d="M 577 217 Q 577 231 614 231 Q 651 231 651 241 Q 651 251 757 251" fill="none" stroke="#000000" stroke-linejoin="round" stroke-linecap="round" stroke-miterlimit="10" pointer-events="none"/><path d="M 516.5 288.5 L 516.5 289.22 L 526.21 289.05 L 535.93 288.91 L 545.64 287.76 L 555.36 288.35 L 565.07 288.31 L 574.79 288.94 L 584.5 288.9 L 594.21 287.79 L 603.93 288.71 L 613.64 288.26 L 623.36 288.05 L 633.07 288.58 L 642.79 287.98 L 652.5 288.5 Q 664.5 288.5 664.5 300.5 L 665.07 300.5 L 664.16 309.83 L 664.1 319.17 L 664.06 328.5 L 665.1 337.83 L 665.03 347.17 L 664.5 356.5 Q 664.5 368.5 652.5 368.5 L 652.5 368.26 L 642.79 368.6 L 633.07 368.97 L 623.36 367.82 L 613.64 369.04 L 603.93 368.47 L 594.21 368.34 L 584.5 367.81 L 574.79 368.99 L 565.07 368.18 L 555.36 368.21 L 545.64 368.8 L 535.93 368.66 L 526.21 368.58 L 516.5 368.5 Q 504.5 368.5 504.5 356.5 L 504.44 356.5 L 504.82 347.17 L 504.02 337.83 L 503.98 328.5 L 504.84 319.17 L 504.25 309.83 L 504.5 300.5 Q 504.5 288.5 516.5 288.5 L 516.5 288.5 Z Z" fill="#000000" stroke="#000000" stroke-width="3" stroke-linejoin="round" stroke-linecap="round" stroke-miterlimit="10" transform="translate(2,3)" opacity="0.25"/><path d="M 516.5 288.5 L 516.5 289.22 L 526.21 289.05 L 535.93 288.91 L 545.64 287.76 L 555.36 288.35 L 565.07 288.31 L 574.79 288.94 L 584.5 288.9 L 594.21 287.79 L 603.93 288.71 L 613.64 288.26 L 623.36 288.05 L 633.07 288.58 L 642.79 287.98 L 652.5 288.5 Q 664.5 288.5 664.5 300.5 L 665.07 300.5 L 664.16 309.83 L 664.1 319.17 L 664.06 328.5 L 665.1 337.83 L 665.03 347.17 L 664.5 356.5 Q 664.5 368.5 652.5 368.5 L 652.5 368.26 L 642.79 368.6 L 633.07 368.97 L 623.36 367.82 L 613.64 369.04 L 603.93 368.47 L 594.21 368.34 L 584.5 367.81 L 574.79 368.99 L 565.07 368.18 L 555.36 368.21 L 545.64 368.8 L 535.93 368.66 L 526.21 368.58 L 516.5 368.5 Q 504.5 368.5 504.5 356.5 L 504.44 356.5 L 504.82 347.17 L 504.02 337.83 L 503.98 328.5 L 504.84 319.17 L 504.25 309.83 L 504.5 300.5 Q 504.5 288.5 516.5 288.5 L 516.5 288.5 Z Z" fill="#fff2cc" stroke="#d6b656" stroke-width="3" stroke-linejoin="round" stroke-linecap="round" stroke-miterlimit="10" pointer-events="none"/><g fill="#000000" font-family="Comic Sans MS" text-anchor="middle" font-size="24px"><text x="584" y="323.5">Enrichir le</text><text x="584" y="352.5">programme</text></g><path d="M 511 230 Q 511 257 548 257 Q 585 257 585 284.5" fill="none" stroke="#000000" stroke-linejoin="round" stroke-linecap="round" stroke-miterlimit="10" pointer-events="none"/><path d="M 660 448.5 L 660 448.12 L 670.25 449.02 L 680.5 448.48 L 690.75 448.94 L 701 448.51 L 711.25 449.21 L 721.5 449.22 L 731.75 448.28 L 742 448.5 Q 751 448.5 751 457.5 L 751 457.5 L 750.79 465.9 L 751.02 474.3 L 750.75 482.7 L 750.76 491.1 L 751 499.5 Q 751 508.5 742 508.5 L 742 508.07 L 731.75 508.11 L 721.5 508.09 L 711.25 508.46 L 701 508.6 L 690.75 507.86 L 680.5 507.94 L 670.25 508.27 L 660 508.5 Q 651 508.5 651 499.5 L 650.92 499.5 L 650.96 491.1 L 650.75 482.7 L 651.2 474.3 L 651.19 465.9 L 651 457.5 Q 651 448.5 660 448.5 L 660 448.5 Z Z" fill="#000000" stroke="#000000" stroke-width="2" stroke-linejoin="round" stroke-linecap="round" stroke-miterlimit="10" transform="translate(2,3)" opacity="0.25"/><path d="M 660 448.5 L 660 448.12 L 670.25 449.02 L 680.5 448.48 L 690.75 448.94 L 701 448.51 L 711.25 449.21 L 721.5 449.22 L 731.75 448.28 L 742 448.5 Q 751 448.5 751 457.5 L 751 457.5 L 750.79 465.9 L 751.02 474.3 L 750.75 482.7 L 750.76 491.1 L 751 499.5 Q 751 508.5 742 508.5 L 742 508.07 L 731.75 508.11 L 721.5 508.09 L 711.25 508.46 L 701 508.6 L 690.75 507.86 L 680.5 507.94 L 670.25 508.27 L 660 508.5 Q 651 508.5 651 499.5 L 650.92 499.5 L 650.96 491.1 L 650.75 482.7 L 651.2 474.3 L 651.19 465.9 L 651 457.5 Q 651 448.5 660 448.5 L 660 448.5 Z Z" fill="#fff2cc" stroke="#d6b656" stroke-width="2" stroke-linejoin="round" stroke-linecap="round" stroke-miterlimit="10" pointer-events="none"/><g fill="#000000" font-family="Comic Sans MS" text-anchor="middle" font-size="18px"><text x="700" y="473.5">Dimensions</text><text x="700" y="495.5">des pièces</text></g><path d="M 601 372.5 Q 601 408 651 408 Q 701 408 701 446.5" fill="none" stroke="#000000" stroke-linejoin="round" stroke-linecap="round" stroke-miterlimit="10" pointer-events="none"/><path d="M 540 438.5 L 540 438.03 L 550.25 438.99 L 560.5 439.23 L 570.75 439.07 L 581 438.06 L 591.25 438.72 L 601.5 438.91 L 611.75 438.86 L 622 438.5 Q 631 438.5 631 447.5 L 630.83 447.5 L 631.15 455.9 L 630.87 464.3 L 630.87 472.7 L 630.93 481.1 L 631 489.5 Q 631 498.5 622 498.5 L 622 498.15 L 611.75 498.37 L 601.5 499.05 L 591.25 498.67 L 581 498.39 L 570.75 498.27 L 560.5 497.84 L 550.25 498.23 L 540 498.5 Q 531 498.5 531 489.5 L 530.88 489.5 L 530.98 481.1 L 531.15 472.7 L 531.09 464.3 L 531.03 455.9 L 531 447.5 Q 531 438.5 540 438.5 L 540 438.5 Z Z" fill="#000000" stroke="#000000" stroke-width="2" stroke-linejoin="round" stroke-linecap="round" stroke-miterlimit="10" transform="translate(2,3)" opacity="0.25"/><path d="M 540 438.5 L 540 438.03 L 550.25 438.99 L 560.5 439.23 L 570.75 439.07 L 581 438.06 L 591.25 438.72 L 601.5 438.91 L 611.75 438.86 L 622 438.5 Q 631 438.5 631 447.5 L 630.83 447.5 L 631.15 455.9 L 630.87 464.3 L 630.87 472.7 L 630.93 481.1 L 631 489.5 Q 631 498.5 622 498.5 L 622 498.15 L 611.75 498.37 L 601.5 499.05 L 591.25 498.67 L 581 498.39 L 570.75 498.27 L 560.5 497.84 L 550.25 498.23 L 540 498.5 Q 531 498.5 531 489.5 L 530.88 489.5 L 530.98 481.1 L 531.15 472.7 L 531.09 464.3 L 531.03 455.9 L 531 447.5 Q 531 438.5 540 438.5 L 540 438.5 Z Z" fill="#fff2cc" stroke="#d6b656" stroke-width="2" stroke-linejoin="round" stroke-linecap="round" stroke-miterlimit="10" pointer-events="none"/><g fill="#000000" font-family="Comic Sans MS" text-anchor="middle" font-size="18px"><text x="580" y="463.5">Types</text><text x="580" y="485.5">construits</text></g><path d="M 581 372.5 Q 581 391 581 436.5" fill="none" stroke="#000000" stroke-linejoin="round" stroke-linecap="round" stroke-miterlimit="10" pointer-events="none"/><path d="M 760 378.5 L 760 377.81 L 770.25 378.47 L 780.5 378.31 L 790.75 377.95 L 801 377.97 L 811.25 378.03 L 821.5 378.79 L 831.75 378.5 L 842 378.5 Q 851 378.5 851 387.5 L 850.85 387.5 L 851.21 395.9 L 850.91 404.3 L 850.78 412.7 L 851.25 421.1 L 851 429.5 Q 851 438.5 842 438.5 L 842 438.98 L 831.75 437.96 L 821.5 438.33 L 811.25 438.33 L 801 438.58 L 790.75 438.66 L 780.5 439.05 L 770.25 438.65 L 760 438.5 Q 751 438.5 751 429.5 L 750.79 429.5 L 751.15 421.1 L 750.79 412.7 L 751.07 404.3 L 750.89 395.9 L 751 387.5 Q 751 378.5 760 378.5 L 760 378.5 Z Z" fill="#000000" stroke="#000000" stroke-width="2" stroke-linejoin="round" stroke-linecap="round" stroke-miterlimit="10" transform="translate(2,3)" opacity="0.25"/><path d="M 760 378.5 L 760 377.81 L 770.25 378.47 L 780.5 378.31 L 790.75 377.95 L 801 377.97 L 811.25 378.03 L 821.5 378.79 L 831.75 378.5 L 842 378.5 Q 851 378.5 851 387.5 L 850.85 387.5 L 851.21 395.9 L 850.91 404.3 L 850.78 412.7 L 851.25 421.1 L 851 429.5 Q 851 438.5 842 438.5 L 842 438.98 L 831.75 437.96 L 821.5 438.33 L 811.25 438.33 L 801 438.58 L 790.75 438.66 L 780.5 439.05 L 770.25 438.65 L 760 438.5 Q 751 438.5 751 429.5 L 750.79 429.5 L 751.15 421.1 L 750.79 412.7 L 751.07 404.3 L 750.89 395.9 L 751 387.5 Q 751 378.5 760 378.5 L 760 378.5 Z Z" fill="#fff2cc" stroke="#d6b656" stroke-width="2" stroke-linejoin="round" stroke-linecap="round" stroke-miterlimit="10" pointer-events="none"/><g fill="#000000" font-family="Comic Sans MS" text-anchor="middle" font-size="18px"><text x="800" y="403.5">Epaisseurs</text><text x="800" y="425.5">de sciage</text></g><path d="M 668.5 329 Q 801 329 801 376.5" fill="none" stroke="#000000" stroke-linejoin="round" stroke-linecap="round" stroke-miterlimit="10" pointer-events="none"/><path d="M 32 381 L 32 380.53 L 41.89 381.65 L 51.78 380.69 L 61.67 380.62 L 71.56 381.72 L 81.44 380.73 L 91.33 381.75 L 101.22 380.56 L 111.11 381.73 L 121 381.05 L 130.89 381.49 L 140.78 381.48 L 150.67 381.41 L 160.56 380.38 L 170.44 380.88 L 180.33 380.44 L 190.22 381.39 L 200.11 380.41 L 210 381 Q 216 381 216 387 L 216.22 387 L 216.06 392.6 L 216.04 398.2 L 215.89 403.8 L 216.14 409.4 L 216 415 Q 216 421 210 421 L 210 420.35 L 200.11 421.23 L 190.22 421.48 L 180.33 420.64 L 170.44 421.6 L 160.56 420.37 L 150.67 420.4 L 140.78 421.68 L 130.89 420.3 L 121 420.49 L 111.11 420.64 L 101.22 420.76 L 91.33 421.43 L 81.44 420.3 L 71.56 421.43 L 61.67 420.99 L 51.78 421.07 L 41.89 420.31 L 32 421 Q 26 421 26 415 L 25.85 415 L 26.23 409.4 L 26.22 403.8 L 26.01 398.2 L 26.01 392.6 L 26 387 Q 26 381 32 381 L 32 381 Z Z" fill="#000000" stroke="#000000" stroke-width="2" stroke-linejoin="round" stroke-linecap="round" stroke-miterlimit="10" transform="translate(2,3)" opacity="0.25"/><path d="M 32 381 L 32 380.53 L 41.89 381.65 L 51.78 380.69 L 61.67 380.62 L 71.56 381.72 L 81.44 380.73 L 91.33 381.75 L 101.22 380.56 L 111.11 381.73 L 121 381.05 L 130.89 381.49 L 140.78 381.48 L 150.67 381.41 L 160.56 380.38 L 170.44 380.88 L 180.33 380.44 L 190.22 381.39 L 200.11 380.41 L 210 381 Q 216 381 216 387 L 216.22 387 L 216.06 392.6 L 216.04 398.2 L 215.89 403.8 L 216.14 409.4 L 216 415 Q 216 421 210 421 L 210 420.35 L 200.11 421.23 L 190.22 421.48 L 180.33 420.64 L 170.44 421.6 L 160.56 420.37 L 150.67 420.4 L 140.78 421.68 L 130.89 420.3 L 121 420.49 L 111.11 420.64 L 101.22 420.76 L 91.33 421.43 L 81.44 420.3 L 71.56 421.43 L 61.67 420.99 L 51.78 421.07 L 41.89 420.31 L 32 421 Q 26 421 26 415 L 25.85 415 L 26.23 409.4 L 26.22 403.8 L 26.01 398.2 L 26.01 392.6 L 26 387 Q 26 381 32 381 L 32 381 Z Z" fill="#e1d5e7" stroke="#9673a6" stroke-width="2" stroke-linejoin="round" stroke-linecap="round" stroke-miterlimit="10" pointer-events="none"/><g fill="#000000" font-family="Comic Sans MS" text-anchor="middle" font-size="18px"><text x="120" y="407">iPython.display  SVG()</text></g><path d="M 299 354 Q 299 371 210 371 Q 121 371 121 379" fill="none" stroke="#000000" stroke-linejoin="round" stroke-linecap="round" stroke-miterlimit="10" pointer-events="none"/><path d="M 197 438.5 L 197 437.98 L 206.71 439.02 L 216.43 437.92 L 226.14 437.97 L 235.86 438.34 L 245.57 438.11 L 255.29 437.87 L 265 438.5 Q 271 438.5 271 444.5 L 270.96 444.5 L 270.99 450.1 L 270.96 455.7 L 271.04 461.3 L 271.14 466.9 L 271 472.5 Q 271 478.5 265 478.5 L 265 478.56 L 255.29 478.79 L 245.57 478.25 L 235.86 478.91 L 226.14 477.91 L 216.43 478 L 206.71 478.36 L 197 478.5 Q 191 478.5 191 472.5 L 190.97 472.5 L 191.14 466.9 L 191.21 461.3 L 191.16 455.7 L 190.85 450.1 L 191 444.5 Q 191 438.5 197 438.5 L 197 438.5 Z Z" fill="#000000" stroke="#000000" stroke-width="2" stroke-linejoin="round" stroke-linecap="round" stroke-miterlimit="10" transform="translate(2,3)" opacity="0.25"/><path d="M 197 438.5 L 197 437.98 L 206.71 439.02 L 216.43 437.92 L 226.14 437.97 L 235.86 438.34 L 245.57 438.11 L 255.29 437.87 L 265 438.5 Q 271 438.5 271 444.5 L 270.96 444.5 L 270.99 450.1 L 270.96 455.7 L 271.04 461.3 L 271.14 466.9 L 271 472.5 Q 271 478.5 265 478.5 L 265 478.56 L 255.29 478.79 L 245.57 478.25 L 235.86 478.91 L 226.14 477.91 L 216.43 478 L 206.71 478.36 L 197 478.5 Q 191 478.5 191 472.5 L 190.97 472.5 L 191.14 466.9 L 191.21 461.3 L 191.16 455.7 L 190.85 450.1 L 191 444.5 Q 191 438.5 197 438.5 L 197 438.5 Z Z" fill="#e1d5e7" stroke="#9673a6" stroke-width="2" stroke-linejoin="round" stroke-linecap="round" stroke-miterlimit="10" pointer-events="none"/><g fill="#000000" font-family="Comic Sans MS" text-anchor="middle" font-size="18px"><text x="230" y="464.5">Pillow</text></g><path d="M 7 317 L 7 316.86 L 16.82 316.32 L 26.64 316.61 L 36.45 317.28 L 46.27 316.79 L 56.09 317.74 L 65.91 316.36 L 75.73 316.93 L 85.55 316.5 L 95.36 317.22 L 105.18 316.9 L 115 317 Q 121 317 121 323 L 120.83 323 L 121.02 328.6 L 121.13 334.2 L 120.97 339.8 L 121.1 345.4 L 121 351 Q 121 357 115 357 L 115 356.39 L 105.18 356.5 L 95.36 357.08 L 85.55 356.46 L 75.73 356.28 L 65.91 357.36 L 56.09 356.83 L 46.27 356.95 L 36.45 357.2 L 26.64 357.4 L 16.82 357.21 L 7 357 Q 1 357 1 351 L 0.75 351 L 0.92 345.4 L 1 339.8 L 0.94 334.2 L 1.06 328.6 L 1 323 Q 1 317 7 317 L 7 317 Z Z" fill="#000000" stroke="#000000" stroke-width="2" stroke-linejoin="round" stroke-linecap="round" stroke-miterlimit="10" transform="translate(2,3)" opacity="0.25"/><path d="M 7 317 L 7 316.86 L 16.82 316.32 L 26.64 316.61 L 36.45 317.28 L 46.27 316.79 L 56.09 317.74 L 65.91 316.36 L 75.73 316.93 L 85.55 316.5 L 95.36 317.22 L 105.18 316.9 L 115 317 Q 121 317 121 323 L 120.83 323 L 121.02 328.6 L 121.13 334.2 L 120.97 339.8 L 121.1 345.4 L 121 351 Q 121 357 115 357 L 115 356.39 L 105.18 356.5 L 95.36 357.08 L 85.55 356.46 L 75.73 356.28 L 65.91 357.36 L 56.09 356.83 L 46.27 356.95 L 36.45 357.2 L 26.64 357.4 L 16.82 357.21 L 7 357 Q 1 357 1 351 L 0.75 351 L 0.92 345.4 L 1 339.8 L 0.94 334.2 L 1.06 328.6 L 1 323 Q 1 317 7 317 L 7 317 Z Z" fill="#e1d5e7" stroke="#9673a6" stroke-width="2" stroke-linejoin="round" stroke-linecap="round" stroke-miterlimit="10" pointer-events="none"/><g fill="#000000" font-family="Comic Sans MS" text-anchor="middle" font-size="18px"><text x="60" y="343">ipythonblocks</text></g><path d="M 261 325 Q 261 337 123 337" fill="none" stroke="#000000" stroke-linejoin="round" stroke-linecap="round" stroke-miterlimit="10" pointer-events="none"/><path d="M 46.5 261 L 46.5 261.43 L 56.28 261.2 L 66.06 260.98 L 75.83 260.95 L 85.61 261.63 L 95.39 260.63 L 105.17 261.36 L 114.94 261.34 L 124.72 260.4 L 134.5 261 Q 140.5 261 140.5 267 L 140.68 267 L 140.51 272.6 L 140.39 278.2 L 140.25 283.8 L 140.6 289.4 L 140.5 295 Q 140.5 301 134.5 301 L 134.5 300.58 L 124.72 301.42 L 114.94 301.14 L 105.17 301.55 L 95.39 300.28 L 85.61 301.19 L 75.83 301.2 L 66.06 300.36 L 56.28 300.71 L 46.5 301 Q 40.5 301 40.5 295 L 40.48 295 L 40.28 289.4 L 40.27 283.8 L 40.66 278.2 L 40.35 272.6 L 40.5 267 Q 40.5 261 46.5 261 L 46.5 261 Z Z" fill="#000000" stroke="#000000" stroke-width="2" stroke-linejoin="round" stroke-linecap="round" stroke-miterlimit="10" transform="translate(2,3)" opacity="0.25"/><path d="M 46.5 261 L 46.5 261.43 L 56.28 261.2 L 66.06 260.98 L 75.83 260.95 L 85.61 261.63 L 95.39 260.63 L 105.17 261.36 L 114.94 261.34 L 124.72 260.4 L 134.5 261 Q 140.5 261 140.5 267 L 140.68 267 L 140.51 272.6 L 140.39 278.2 L 140.25 283.8 L 140.6 289.4 L 140.5 295 Q 140.5 301 134.5 301 L 134.5 300.58 L 124.72 301.42 L 114.94 301.14 L 105.17 301.55 L 95.39 300.28 L 85.61 301.19 L 75.83 301.2 L 66.06 300.36 L 56.28 300.71 L 46.5 301 Q 40.5 301 40.5 295 L 40.48 295 L 40.28 289.4 L 40.27 283.8 L 40.66 278.2 L 40.35 272.6 L 40.5 267 Q 40.5 261 46.5 261 L 46.5 261 Z Z" fill="#e1d5e7" stroke="#9673a6" stroke-width="2" stroke-linejoin="round" stroke-linecap="round" stroke-miterlimit="10" pointer-events="none"/><g fill="#000000" font-family="Comic Sans MS" text-anchor="middle" font-size="18px"><text x="89.5" y="287">ipyturtle</text></g><path d="M 262 314 Q 262 311 231.5 311 Q 201 311 201 296 Q 201 281 142.5 281" fill="none" stroke="#000000" stroke-linejoin="round" stroke-linecap="round" stroke-miterlimit="10" pointer-events="none"/><path d="M 420 401 L 420 400.39 L 430.25 401.19 L 440.5 400.53 L 450.75 401.62 L 461 401.65 L 471.25 400.97 L 481.5 401.02 L 491.75 400.65 L 502 401 Q 511 401 511 410 L 510.83 410 L 510.91 418.4 L 511.21 426.8 L 511.17 435.2 L 511.2 443.6 L 511 452 Q 511 461 502 461 L 502 460.94 L 491.75 461.69 L 481.5 460.89 L 471.25 461.73 L 461 460.33 L 450.75 461.66 L 440.5 461.69 L 430.25 461.21 L 420 461 Q 411 461 411 452 L 411.22 452 L 410.79 443.6 L 411.21 435.2 L 411.15 426.8 L 411.17 418.4 L 411 410 Q 411 401 420 401 L 420 401 Z Z" fill="#000000" stroke="#000000" stroke-width="2" stroke-linejoin="round" stroke-linecap="round" stroke-miterlimit="10" transform="translate(2,3)" opacity="0.25"/><path d="M 420 401 L 420 400.39 L 430.25 401.19 L 440.5 400.53 L 450.75 401.62 L 461 401.65 L 471.25 400.97 L 481.5 401.02 L 491.75 400.65 L 502 401 Q 511 401 511 410 L 510.83 410 L 510.91 418.4 L 511.21 426.8 L 511.17 435.2 L 511.2 443.6 L 511 452 Q 511 461 502 461 L 502 460.94 L 491.75 461.69 L 481.5 460.89 L 471.25 461.73 L 461 460.33 L 450.75 461.66 L 440.5 461.69 L 430.25 461.21 L 420 461 Q 411 461 411 452 L 411.22 452 L 410.79 443.6 L 411.21 435.2 L 411.15 426.8 L 411.17 418.4 L 411 410 Q 411 401 420 401 L 420 401 Z Z" fill="#fff2cc" stroke="#d6b656" stroke-width="2" stroke-linejoin="round" stroke-linecap="round" stroke-miterlimit="10" pointer-events="none"/><g fill="#000000" font-family="Comic Sans MS" text-anchor="middle" font-size="18px"><text x="460" y="437">.../...</text></g><path d="M 543 373 Q 543 385 502 385 Q 461 385 461 399" fill="none" stroke="#000000" stroke-linejoin="round" stroke-linecap="round" stroke-miterlimit="10" stroke-dasharray="3 3" pointer-events="none"/><path d="M 307 441 L 307 440.53 L 316.44 440.73 L 325.89 441.55 L 335.33 440.31 L 344.78 441.18 L 354.22 441.07 L 363.67 440.84 L 373.11 441.17 L 382.56 440.36 L 392 441 Q 398 441 398 447 L 397.95 447 L 397.93 452.6 L 398.07 458.2 L 397.86 463.8 L 397.85 469.4 L 398 475 Q 398 481 392 481 L 392 480.45 L 382.56 481.22 L 373.11 481.33 L 363.67 481.67 L 354.22 481.28 L 344.78 480.73 L 335.33 480.86 L 325.89 481.39 L 316.44 480.37 L 307 481 Q 301 481 301 475 L 300.9 475 L 301.09 469.4 L 300.89 463.8 L 300.79 458.2 L 301.15 452.6 L 301 447 Q 301 441 307 441 L 307 441 Z Z" fill="#000000" stroke="#000000" stroke-width="2" stroke-linejoin="round" stroke-linecap="round" stroke-miterlimit="10" transform="translate(2,3)" opacity="0.25"/><path d="M 307 441 L 307 440.53 L 316.44 440.73 L 325.89 441.55 L 335.33 440.31 L 344.78 441.18 L 354.22 441.07 L 363.67 440.84 L 373.11 441.17 L 382.56 440.36 L 392 441 Q 398 441 398 447 L 397.95 447 L 397.93 452.6 L 398.07 458.2 L 397.86 463.8 L 397.85 469.4 L 398 475 Q 398 481 392 481 L 392 480.45 L 382.56 481.22 L 373.11 481.33 L 363.67 481.67 L 354.22 481.28 L 344.78 480.73 L 335.33 480.86 L 325.89 481.39 L 316.44 480.37 L 307 481 Q 301 481 301 475 L 300.9 475 L 301.09 469.4 L 300.89 463.8 L 300.79 458.2 L 301.15 452.6 L 301 447 Q 301 441 307 441 L 307 441 Z Z" fill="#e1d5e7" stroke="#9673a6" stroke-width="2" stroke-linejoin="round" stroke-linecap="round" stroke-miterlimit="10" pointer-events="none"/><g fill="#000000" font-family="Comic Sans MS" text-anchor="middle" font-size="18px"><text x="348.5" y="467">.../...</text></g><path d="M 372 355 Q 371 355 371 373 Q 371 391 351 391 Q 331 391 331 439" fill="none" stroke="#000000" stroke-linejoin="round" stroke-linecap="round" stroke-miterlimit="10" stroke-dasharray="3 3" pointer-events="none"/><path d="M 336 356 Q 336 396 295 396 Q 254 396 254 436" fill="none" stroke="#000000" stroke-linejoin="round" stroke-linecap="round" stroke-miterlimit="10" pointer-events="none"/><path d="M 122 206 L 122 205.55 L 131.78 205.26 L 141.56 205.97 L 151.33 205.76 L 161.11 205.94 L 170.89 205.74 L 180.67 205.57 L 190.44 206.35 L 200.22 206.37 L 210 206 Q 216 206 216 212 L 216.19 212 L 216.15 217.6 L 215.82 223.2 L 216.05 228.8 L 215.83 234.4 L 216 240 Q 216 246 210 246 L 210 246.36 L 200.22 245.84 L 190.44 246.13 L 180.67 245.69 L 170.89 245.32 L 161.11 245.74 L 151.33 245.43 L 141.56 246.52 L 131.78 245.98 L 122 246 Q 116 246 116 240 L 115.96 240 L 115.81 234.4 L 115.86 228.8 L 116.21 223.2 L 115.84 217.6 L 116 212 Q 116 206 122 206 L 122 206 Z Z" fill="#000000" stroke="#000000" stroke-width="2" stroke-linejoin="round" stroke-linecap="round" stroke-miterlimit="10" transform="translate(2,3)" opacity="0.25"/><path d="M 122 206 L 122 205.55 L 131.78 205.26 L 141.56 205.97 L 151.33 205.76 L 161.11 205.94 L 170.89 205.74 L 180.67 205.57 L 190.44 206.35 L 200.22 206.37 L 210 206 Q 216 206 216 212 L 216.19 212 L 216.15 217.6 L 215.82 223.2 L 216.05 228.8 L 215.83 234.4 L 216 240 Q 216 246 210 246 L 210 246.36 L 200.22 245.84 L 190.44 246.13 L 180.67 245.69 L 170.89 245.32 L 161.11 245.74 L 151.33 245.43 L 141.56 246.52 L 131.78 245.98 L 122 246 Q 116 246 116 240 L 115.96 240 L 115.81 234.4 L 115.86 228.8 L 116.21 223.2 L 115.84 217.6 L 116 212 Q 116 206 122 206 L 122 206 Z Z" fill="#e1d5e7" stroke="#9673a6" stroke-width="2" stroke-linejoin="round" stroke-linecap="round" stroke-miterlimit="10" pointer-events="none"/><g fill="#000000" font-family="Comic Sans MS" text-anchor="middle" font-size="18px"><text x="165" y="232">Graphe ?</text></g><path d="M 260 281 Q 166 281 166 248" fill="none" stroke="#000000" stroke-linejoin="round" stroke-linecap="round" stroke-miterlimit="10" pointer-events="none"/></g></svg>